<svg width="61" height="61" viewBox="0 0 61 61" fill="none" xmlns="http://www.w3.org/2000/svg">
<circle cx="30.45" cy="30.54" r="30.45" fill="white"/>
<rect x="10.15" y="10.24" width="40.6" height="40.6" fill="white" fill-opacity="0.01"/>
<path fill-rule="evenodd" clip-rule="evenodd" d="M30.45 49.7025L31.5626 48.7309C40.9192 40.561 45.675 33.4273 45.675 27.1567C45.675 18.2766 38.7441 11.9317 30.45 11.9317C22.1558 11.9317 15.225 18.2766 15.225 27.1567C15.225 33.4273 19.9808 40.561 29.3373 48.7309L30.45 49.7025ZM30.4499 45.1956C22.5103 38.0401 18.6083 31.9766 18.6083 27.1567C18.6083 20.2151 23.9609 15.315 30.4499 15.315C36.939 15.315 42.2916 20.2151 42.2916 27.1567C42.2916 31.9766 38.3896 38.0401 30.4499 45.1956ZM30.4501 18.6983C35.1215 18.6983 38.9084 22.4852 38.9084 27.1566C38.9084 31.828 35.1215 35.615 30.4501 35.615C25.7787 35.615 21.9917 31.828 21.9917 27.1566C21.9917 22.4852 25.7787 18.6983 30.4501 18.6983ZM25.375 27.1567C25.375 24.3538 27.6472 22.0817 30.45 22.0817C33.2528 22.0817 35.525 24.3538 35.525 27.1567C35.525 29.9595 33.2528 32.2317 30.45 32.2317C27.6472 32.2317 25.375 29.9595 25.375 27.1567Z" fill="black"/>
<mask id="mask0" mask-type="alpha" maskUnits="userSpaceOnUse" x="15" y="11" width="31" height="39">
<path fill-rule="evenodd" clip-rule="evenodd" d="M30.45 49.7025L31.5626 48.7309C40.9192 40.561 45.675 33.4273 45.675 27.1567C45.675 18.2766 38.7441 11.9317 30.45 11.9317C22.1558 11.9317 15.225 18.2766 15.225 27.1567C15.225 33.4273 19.9808 40.561 29.3373 48.7309L30.45 49.7025ZM30.4499 45.1956C22.5103 38.0401 18.6083 31.9766 18.6083 27.1567C18.6083 20.2151 23.9609 15.315 30.4499 15.315C36.939 15.315 42.2916 20.2151 42.2916 27.1567C42.2916 31.9766 38.3896 38.0401 30.4499 45.1956ZM30.4501 18.6983C35.1215 18.6983 38.9084 22.4852 38.9084 27.1566C38.9084 31.828 35.1215 35.615 30.4501 35.615C25.7787 35.615 21.9917 31.828 21.9917 27.1566C21.9917 22.4852 25.7787 18.6983 30.4501 18.6983ZM25.375 27.1567C25.375 24.3538 27.6472 22.0817 30.45 22.0817C33.2528 22.0817 35.525 24.3538 35.525 27.1567C35.525 29.9595 33.2528 32.2317 30.45 32.2317C27.6472 32.2317 25.375 29.9595 25.375 27.1567Z" fill="white"/>
</mask>
<g mask="url(#mask0)">
</g>
</svg>
