<svg width="169" height="30" viewBox="0 0 169 30" fill="none" xmlns="http://www.w3.org/2000/svg">
<path d="M32.3776 29.5698C30.7738 29.5698 29.5907 29.1525 28.8283 28.3181C28.0921 27.4576 27.724 26.4016 27.724 25.1499C27.724 24.6023 27.7898 23.9896 27.9212 23.3116C28.0527 22.6076 28.1841 21.9296 28.3156 21.2777C28.4733 20.6258 28.5785 20.2086 28.6311 20.0261C28.8414 19.1134 29.0386 18.2138 29.2226 17.3273C29.4067 16.4407 29.4987 15.7236 29.4987 15.176C29.4987 13.8462 29.0254 13.1812 28.079 13.1812C27.4217 13.1812 26.8301 13.4941 26.3043 14.1199C25.8048 14.7458 25.3973 15.5541 25.0818 16.545C24.293 20.6389 23.4912 24.9022 22.6761 29.3351H16.9972L22.4001 4.38071C21.4799 4.30248 19.7447 4.08084 17.1944 3.71578L11.6338 29.3351H5.95495L11.5944 3.36376C9.09674 3.46806 7.1512 4.10691 5.75776 5.28032C4.36433 6.45372 3.66762 8.47458 3.66762 11.3429C3.66762 12.3077 3.75964 12.9857 3.94367 13.3768C4.12771 13.7419 4.21973 13.9505 4.21973 14.0026C2.80001 14.0026 1.73522 13.7158 1.02536 13.1421C0.341785 12.5424 0 11.5645 0 10.2086C0 8.38331 0.499532 6.70144 1.4986 5.16297C2.49766 3.62451 4.03569 2.38592 6.1127 1.4472C8.1897 0.508477 10.7794 0.0391158 13.8817 0.0391158C14.4076 0.0391158 15.5249 0.156457 17.2339 0.391137C20.3625 0.834422 22.7944 1.05606 24.5297 1.05606C26.7907 1.05606 28.3813 0.743156 29.3015 0.117341C28.9071 0.847459 28.5785 1.53846 28.3156 2.19035C28.079 2.84224 27.7766 3.91134 27.4085 5.39765C27.0405 6.85789 26.5672 9.02216 25.9888 11.8905C27.3297 10.3781 28.894 9.62191 30.6818 9.62191C32.0226 9.62191 33.0874 9.98696 33.8762 10.7171C34.6649 11.4472 35.0593 12.5554 35.0593 14.0417C35.0593 14.7979 34.9672 15.6454 34.7832 16.5841C34.5992 17.4967 34.3363 18.618 33.9945 19.9479C33.7841 20.7562 33.587 21.5515 33.4029 22.3338C33.2452 23.09 33.1663 23.6897 33.1663 24.133C33.1663 24.6545 33.2846 25.0587 33.5212 25.3455C33.7579 25.6323 34.1654 25.7757 34.7438 25.7757C35.5325 25.7757 36.1635 25.502 36.6367 24.9544C37.11 24.3807 37.5832 23.5072 38.0565 22.3338H39.7128C38.74 25.2021 37.6095 27.1317 36.3212 28.1226C35.0593 29.0874 33.7447 29.5698 32.3776 29.5698Z" fill="white"/>
<path d="M43.6053 29.5698C41.6861 29.5698 40.1875 29.0743 39.1095 28.0834C38.0316 27.0665 37.4926 25.4889 37.4926 23.3507C37.4926 21.5515 37.8476 19.5698 38.5574 17.4055C39.2673 15.2412 40.4241 13.3768 42.0279 11.8123C43.6316 10.2216 45.6692 9.42634 48.1406 9.42634C51.0326 9.42634 52.4786 10.678 52.4786 13.1812C52.4786 14.6415 52.0579 15.9844 51.2166 17.2099C50.3753 18.4355 49.2579 19.4263 47.8645 20.1825C46.4711 20.9127 44.9856 21.3299 43.4081 21.4342C43.3556 22.0078 43.3293 22.399 43.3293 22.6076C43.3293 24.7718 44.1443 25.854 45.7743 25.854C46.5105 25.854 47.2992 25.6584 48.1406 25.2673C48.9819 24.8761 49.7443 24.3807 50.4279 23.781C49.718 27.6402 47.4438 29.5698 43.6053 29.5698ZM43.6842 19.5567C44.6833 19.5306 45.6166 19.2047 46.4842 18.5789C47.3781 17.9531 48.088 17.1578 48.6138 16.193C49.1659 15.2021 49.442 14.1721 49.442 13.103C49.442 12.0339 49.1133 11.4993 48.4561 11.4993C47.5359 11.4993 46.6157 12.3338 45.6955 14.0026C44.8016 15.6454 44.1312 17.4967 43.6842 19.5567Z" fill="white"/>
<path d="M76.2987 30C75.247 30 74.3269 29.7784 73.5381 29.3351C72.7757 28.9179 72.3945 28.1747 72.3945 27.1056C72.3945 26.4276 72.5653 25.6714 72.9071 24.837C73.3804 25.3585 73.8142 25.7236 74.2085 25.9322C74.6292 26.1408 75.0762 26.2451 75.5494 26.2451C76.864 26.2451 77.8367 25.515 78.4677 24.0548C79.125 22.5945 79.4536 20.9778 79.4536 19.2047C79.4536 15.8931 78.2048 14.2373 75.7071 14.2373C74.9973 14.2373 74.3926 14.2764 73.8931 14.3546L70.6592 29.3351H64.9803L70.3438 4.45893L76.1804 3.67667L74.3269 12.3598H74.5635C75.5625 12.3598 76.4959 12.0469 77.3635 11.4211C78.2311 10.7692 78.9278 9.96089 79.4536 8.99609C79.9795 8.00522 80.2424 7.01434 80.2424 6.02347C80.2424 4.82399 79.8086 3.82008 78.941 3.01174C78.0996 2.20339 76.7982 1.79922 75.0367 1.79922C73.433 1.79922 71.8686 2.16428 70.3438 2.89439C68.8189 3.59844 67.57 4.66753 66.5973 6.10169C65.6508 7.53585 65.1775 9.26988 65.1775 11.3038C65.1775 12.2686 65.2696 12.9465 65.4536 13.3377C65.6376 13.7027 65.7296 13.9113 65.7296 13.9635C64.3362 13.9635 63.2846 13.6897 62.5747 13.1421C61.8648 12.5684 61.5099 11.6428 61.5099 10.3651C61.5099 8.59192 62.1803 6.91004 63.5212 5.31943C64.862 3.72882 66.6367 2.45111 68.8452 1.48631C71.0536 0.495437 73.3804 0 75.8255 0C77.6658 0 79.217 0.286833 80.479 0.860497C81.741 1.43416 82.6743 2.19035 83.279 3.12908C83.91 4.0678 84.2255 5.09778 84.2255 6.21904C84.2255 7.41851 83.8837 8.57888 83.2001 9.70013C82.5166 10.8214 81.5438 11.734 80.2818 12.4381C81.8593 12.7249 83.0292 13.455 83.7917 14.6284C84.5541 15.7757 84.9353 17.1447 84.9353 18.7353C84.9353 20.2216 84.6461 21.8383 84.0677 23.5854C83.5156 25.3325 82.5823 26.8448 81.2677 28.1226C79.9795 29.3742 78.3231 30 76.2987 30Z" fill="white"/>
<path d="M91.9403 29.5698C89.9947 29.5698 88.483 29.0743 87.4051 28.0834C86.3271 27.0665 85.7882 25.4889 85.7882 23.3507C85.7882 21.5515 86.1431 19.5698 86.853 17.4055C87.5628 15.2412 88.7196 13.3768 90.3234 11.8123C91.9271 10.2216 93.9647 9.42634 96.4361 9.42634C99.3281 9.42634 100.774 10.678 100.774 13.1812C100.774 14.6415 100.353 15.9844 99.5121 17.2099C98.6708 18.4355 97.5535 19.4263 96.16 20.1825C94.7666 20.9127 93.2811 21.3299 91.7037 21.4342C91.6511 22.2164 91.6248 22.7379 91.6248 22.9987C91.6248 24.2764 91.8483 25.1499 92.2952 25.6193C92.7422 26.0626 93.4652 26.2842 94.4642 26.2842C95.884 26.2842 97.0934 25.9583 98.0924 25.3064C99.1178 24.6545 100.235 23.6636 101.445 22.3338H102.785C99.8671 27.1578 96.252 29.5698 91.9403 29.5698ZM92.0192 19.5567C92.9919 19.5046 93.9121 19.1656 94.7797 18.5398C95.6736 17.9139 96.3835 17.1186 96.9093 16.1538C97.4614 15.1891 97.7375 14.1721 97.7375 13.103C97.7375 12.0339 97.4089 11.4993 96.7516 11.4993C95.8051 11.4993 94.8718 12.3207 93.9516 13.9635C93.0577 15.6063 92.4135 17.4707 92.0192 19.5567Z" fill="white"/>
<path d="M106.169 29.5698C104.67 29.5698 103.421 29.0613 102.422 28.0443C101.423 27.0274 100.924 25.4368 100.924 23.2725C100.924 21.3429 101.305 19.322 102.067 17.2099C102.856 15.0717 104.013 13.2725 105.538 11.8123C107.089 10.3259 108.929 9.58279 111.059 9.58279C112.137 9.58279 112.939 9.76532 113.464 10.1304C113.99 10.4954 114.253 10.9778 114.253 11.5776V11.8514L114.687 9.77836H120.366L117.526 23.0769C117.421 23.4681 117.369 23.8853 117.369 24.3286C117.369 25.4498 117.908 26.0104 118.986 26.0104C119.722 26.0104 120.353 25.6714 120.879 24.9935C121.431 24.3155 121.864 23.4289 122.18 22.3338H123.836C122.864 25.1499 121.654 27.0665 120.208 28.0834C118.788 29.0743 117.356 29.5698 115.91 29.5698C114.805 29.5698 113.911 29.2699 113.228 28.6701C112.571 28.0443 112.176 27.1447 112.045 25.9713C111.282 27.0404 110.428 27.914 109.481 28.5919C108.561 29.2438 107.457 29.5698 106.169 29.5698ZM108.732 25.7757C109.389 25.7757 110.033 25.4759 110.664 24.8761C111.322 24.2503 111.769 23.4029 112.005 22.3338L113.898 13.4941C113.898 13.1552 113.767 12.8292 113.504 12.5163C113.241 12.1773 112.833 12.0078 112.281 12.0078C111.23 12.0078 110.283 12.6206 109.442 13.8462C108.601 15.0456 107.943 16.5059 107.47 18.2269C106.997 19.9218 106.76 21.4211 106.76 22.7249C106.76 24.0287 106.944 24.8631 107.312 25.2282C107.707 25.5932 108.18 25.7757 108.732 25.7757Z" fill="white"/>
<path d="M126.69 29.5698C125.165 29.5698 123.969 29.1917 123.101 28.4355C122.26 27.6532 121.84 26.4928 121.84 24.9544C121.84 24.3286 121.905 23.7027 122.037 23.0769L124.876 9.77836H130.555L127.716 23.0769C127.584 23.7288 127.518 24.1982 127.518 24.485C127.518 25.3455 127.965 25.7757 128.859 25.7757C130.069 25.7757 131.186 25.0196 132.211 23.5072C133.263 21.9948 134.104 20.1956 134.735 18.1095C135.366 16.0235 135.682 14.2243 135.682 12.7119C135.629 12.8422 135.458 12.9465 135.169 13.0248C134.88 13.0769 134.63 13.103 134.42 13.103C133.973 13.103 133.618 12.8944 133.355 12.4772C133.118 12.06 133 11.6037 133 11.1082C133 10.4824 133.197 9.97393 133.592 9.58279C134.012 9.19166 134.63 8.99609 135.445 8.99609C136.313 8.99609 136.944 9.32204 137.338 9.97393C137.733 10.5997 137.93 11.4081 137.93 12.399C137.93 14.7458 137.522 17.2621 136.707 19.9479C135.892 22.6076 134.643 24.8761 132.961 26.7536C131.278 28.631 129.188 29.5698 126.69 29.5698Z" fill="white"/>
<path d="M144.163 29.5698C142.218 29.5698 140.706 29.0743 139.628 28.0834C138.55 27.0665 138.011 25.4889 138.011 23.3507C138.011 21.5515 138.366 19.5698 139.076 17.4055C139.786 15.2412 140.943 13.3768 142.546 11.8123C144.15 10.2216 146.188 9.42634 148.659 9.42634C151.551 9.42634 152.997 10.678 152.997 13.1812C152.997 14.6415 152.576 15.9844 151.735 17.2099C150.894 18.4355 149.776 19.4263 148.383 20.1825C146.989 20.9127 145.504 21.3299 143.927 21.4342C143.874 22.2164 143.848 22.7379 143.848 22.9987C143.848 24.2764 144.071 25.1499 144.518 25.6193C144.965 26.0626 145.688 26.2842 146.687 26.2842C148.107 26.2842 149.316 25.9583 150.315 25.3064C151.341 24.6545 152.458 23.6636 153.667 22.3338H155.008C152.09 27.1578 148.475 29.5698 144.163 29.5698ZM144.242 19.5567C145.215 19.5046 146.135 19.1656 147.003 18.5398C147.897 17.9139 148.606 17.1186 149.132 16.1538C149.684 15.1891 149.96 14.1721 149.96 13.103C149.96 12.0339 149.632 11.4993 148.974 11.4993C148.028 11.4993 147.095 12.3207 146.174 13.9635C145.281 15.6063 144.636 17.4707 144.242 19.5567Z" fill="white"/>
<path d="M156.341 9.77836H162.02L161.507 12.2034C162.401 11.4211 163.203 10.8214 163.913 10.4042C164.649 9.98696 165.438 9.77836 166.279 9.77836C167.12 9.77836 167.777 10.0652 168.251 10.6389C168.75 11.2125 169 11.9035 169 12.7119C169 13.4681 168.75 14.133 168.251 14.7067C167.751 15.2803 167.054 15.5671 166.161 15.5671C165.582 15.5671 165.188 15.4368 164.977 15.176C164.793 14.8892 164.649 14.485 164.544 13.9635C164.465 13.6245 164.386 13.3768 164.307 13.2203C164.228 13.0639 164.084 12.9857 163.873 12.9857C163.321 12.9857 162.848 13.103 162.453 13.3377C162.085 13.5463 161.599 13.9244 160.994 14.472L157.839 29.3351H152.161L156.341 9.77836Z" fill="white"/>
</svg>
