<svg width="61" height="62" viewBox="0 0 61 62" fill="none" xmlns="http://www.w3.org/2000/svg">
<circle cx="30.45" cy="30.67" r="30.45" fill="white"/>
<path fill-rule="evenodd" clip-rule="evenodd" d="M34.6792 23.4804C34.6792 27.219 31.6511 30.2471 27.9125 30.2471C24.1739 30.2471 21.1458 27.219 21.1458 23.4804C21.1458 19.7418 24.1739 16.7138 27.9125 16.7138C31.6511 16.7138 34.6792 19.7418 34.6792 23.4804ZM31.2958 23.4804C31.2958 21.6196 29.7733 20.0971 27.9125 20.0971C26.0517 20.0971 24.5292 21.6196 24.5292 23.4804C24.5292 25.3413 26.0517 26.8638 27.9125 26.8638C29.7733 26.8638 31.2958 25.3413 31.2958 23.4804ZM17.7625 40.3971C18.1008 39.3313 22.1101 37.5551 26.1531 37.1153L29.6041 33.7319C28.9444 33.6643 28.4538 33.6304 27.9125 33.6304C23.3957 33.6304 14.3792 35.8973 14.3792 40.3971V43.7804H29.6041L26.2208 40.3971H17.7625ZM35.4742 39.8388L44.1525 31.0929L46.5208 33.4782L35.4742 44.6263L29.6041 38.7054L31.9725 36.3202L35.4742 39.8388Z" fill="#333333"/>
</svg>
